<svg width="23" height="19" viewBox="0 0 23 19" fill="none" xmlns="http://www.w3.org/2000/svg">
<path d="M10.3624 17.6046H2.5912C1.5504 17.6046 0.706665 16.7608 0.706665 15.72V5.5349M0.706665 5.5349V2.59157C0.706665 1.55077 1.5504 0.707031 2.5912 0.707031H19.3406C20.3814 0.707031 21.2251 1.55077 21.2251 2.59157V5.39356C21.2251 5.47162 21.1618 5.5349 21.0838 5.5349H0.706665Z" stroke="#A6D9DC" stroke-width="1.4134" stroke-linecap="round" stroke-linejoin="round"/>
<path d="M0.706665 11.5693H7.94847" stroke="#A6D9DC" stroke-width="1.4134" stroke-linecap="round" stroke-linejoin="round"/>
<path d="M12.7844 14.4795C12.5612 14.0783 12.4496 13.8777 12.4059 13.6652C12.3671 13.4771 12.3671 13.2832 12.4059 13.0951C12.4496 12.8826 12.5612 12.682 12.7844 12.2808L13.3465 11.2704L13.9405 10.2784C14.1764 9.88446 14.2943 9.68752 14.4564 9.54339C14.5999 9.41583 14.7679 9.31885 14.9501 9.25835C15.156 9.19 15.3856 9.18634 15.8446 9.17902L17.0007 9.16058L18.1568 9.17902C18.6159 9.18634 18.8454 9.19 19.0513 9.25835C19.2335 9.31885 19.4015 9.41583 19.545 9.54339C19.7071 9.68752 19.8251 9.88446 20.0609 10.2784L20.655 11.2704L21.217 12.2808C21.4402 12.682 21.5518 12.8826 21.5956 13.0951C21.6343 13.2832 21.6343 13.4771 21.5956 13.6652C21.5518 13.8777 21.4402 14.0783 21.217 14.4795L20.655 15.4899L20.0609 16.4819C19.8251 16.8758 19.7071 17.0728 19.545 17.2169C19.4015 17.3444 19.2335 17.4414 19.0513 17.5019C18.8454 17.5703 18.6159 17.5739 18.1568 17.5813L17.0007 17.5997L15.8446 17.5813C15.3856 17.5739 15.156 17.5703 14.9501 17.5019C14.7679 17.4414 14.5999 17.3444 14.4564 17.2169C14.2943 17.0728 14.1764 16.8758 13.9405 16.4819L13.3465 15.4899L12.7844 14.4795Z" stroke="#A6D9DC" stroke-width="1.4134" stroke-linejoin="round"/>
<circle cx="17.0007" cy="13.3798" r="1.20697" fill="#A6D9DC"/>
</svg>
