<svg width="40" height="36" viewBox="0 0 40 36" fill="none" xmlns="http://www.w3.org/2000/svg">
<path opacity="0.8" d="M34.2863 35.9068H0.884886C0.20416 35.9068 -0.219861 35.1179 0.119356 34.4862L16.8189 3.46789C17.1581 2.83622 18.0108 2.83622 18.35 3.46789L21.3892 9.11608C21.5473 9.40856 21.5473 9.76987 21.3892 10.0648L12.1776 27.1765C11.8384 27.8082 12.2624 28.5971 12.9431 28.5971H31.3686C31.6849 28.5971 31.9759 28.7766 32.1341 29.0715L35.0518 34.4886C35.3933 35.1203 34.967 35.9117 34.2863 35.9117V35.9068Z" fill="#1F9AA2"/>
<path d="M38.4943 25.5673H32.3288C32.0492 25.5673 31.7925 25.4076 31.6526 25.1495L21.8704 6.9785C21.7305 6.72042 21.7305 6.4009 21.8704 6.14283L24.9531 0.418452C25.2534 -0.139484 26.0051 -0.139484 26.3054 0.418452L39.1704 24.3138C39.4707 24.8718 39.0948 25.5698 38.4943 25.5698V25.5673Z" fill="#1F9AA2"/>
</svg>
