<svg width="16" height="16" viewBox="0 0 16 16" fill="none" xmlns="http://www.w3.org/2000/svg">
<path d="M8.00024 1.9375L3.04004 4.14204V7.44884C3.04004 10.5076 5.15639 13.368 8.00024 14.0624C10.8441 13.368 12.9604 10.5076 12.9604 7.44884V4.14204L8.00024 1.9375ZM8.00024 4.14204C8.43875 4.14204 8.8593 4.31623 9.16938 4.62631C9.47945 4.93638 9.65365 5.35693 9.65365 5.79544C9.65365 6.23395 9.47945 6.6545 9.16938 6.96457C8.8593 7.27464 8.43875 7.44884 8.00024 7.44884C7.56173 7.44884 7.14119 7.27464 6.83111 6.96457C6.52104 6.6545 6.34684 6.23395 6.34684 5.79544C6.34684 5.35693 6.52104 4.93638 6.83111 4.62631C7.14119 4.31623 7.56173 4.14204 8.00024 4.14204ZM10.8276 10.7556C10.1595 11.7775 9.16173 12.5399 8.00024 12.9161C6.83876 12.5399 5.84102 11.7775 5.17293 10.7556C4.98554 10.4801 4.82571 10.2045 4.69344 9.91241C4.69344 9.00304 6.18701 8.25901 8.00024 8.25901C9.81347 8.25901 11.307 8.9865 11.307 9.91241C11.1748 10.2045 11.0149 10.4801 10.8276 10.7556Z" fill="#1F9AA2"/>
</svg>
